<svg xmlns="http://www.w3.org/2000/svg" xmlns:xlink="http://www.w3.org/1999/xlink" width="500" zoomAndPan="magnify" viewBox="0 0 375 374.999991" height="500" preserveAspectRatio="xMidYMid meet" version="1.0"><defs><g/><clipPath id="ce49f7b5d5"><path d="M 112.5 150.75 L 262.5 150.75 L 262.5 224.25 L 112.5 224.25 Z M 112.5 150.75 " clip-rule="nonzero"/></clipPath></defs><g clip-path="url(#ce49f7b5d5)"><path fill="#e5d5cd" d="M 187.5 155.308594 C 197.308594 155.308594 206.820312 156.238281 215.789062 158.101562 C 224.339844 159.871094 232.019531 162.390625 238.558594 165.601562 C 244.800781 168.660156 249.871094 172.320312 253.199219 176.160156 C 256.378906 179.851562 258 183.660156 258 187.5 C 258 191.339844 256.378906 195.148438 253.199219 198.839844 C 249.871094 202.679688 244.800781 206.339844 238.558594 209.398438 C 232.019531 212.609375 224.339844 215.128906 215.789062 216.898438 C 206.851562 218.761719 197.339844 219.691406 187.5 219.691406 C 177.660156 219.691406 168.179688 218.761719 159.210938 216.898438 C 150.660156 215.128906 142.980469 212.609375 136.441406 209.398438 C 130.199219 206.339844 125.128906 202.679688 121.800781 198.839844 C 118.621094 195.148438 117 191.339844 117 187.5 C 117 183.660156 118.621094 179.851562 121.800781 176.160156 C 125.128906 172.320312 130.199219 168.660156 136.441406 165.601562 C 142.980469 162.390625 150.660156 159.871094 159.210938 158.101562 C 168.179688 156.269531 177.691406 155.308594 187.5 155.308594 M 187.5 150.808594 C 146.070312 150.808594 112.5 167.25 112.5 187.5 C 112.5 207.75 146.070312 224.191406 187.5 224.191406 C 228.929688 224.191406 262.5 207.78125 262.5 187.5 C 262.5 167.25 228.929688 150.808594 187.5 150.808594 Z M 187.5 150.808594 " fill-opacity="1" fill-rule="nonzero"/></g><g fill="#e5d5cd" fill-opacity="1"><g transform="translate(145.73437, 193.950002)"><g><path d="M 12.25 0 L 9.515625 0 L 8.015625 -6.375 C 7.835938 -7.125 7.6875 -7.90625 7.5625 -8.71875 C 7.4375 -8.039062 7.332031 -7.519531 7.25 -7.15625 C 7.175781 -6.800781 6.625 -4.414062 5.59375 0 L 2.859375 0 L 0.015625 -11.015625 L 2.359375 -11.015625 L 3.953125 -3.90625 L 4.3125 -2.1875 C 4.457031 -2.90625 4.597656 -3.59375 4.734375 -4.25 C 4.867188 -4.914062 5.390625 -7.171875 6.296875 -11.015625 L 8.875 -11.015625 L 10.265625 -5.15625 C 10.367188 -4.71875 10.550781 -3.726562 10.8125 -2.1875 L 11.015625 -3.09375 L 11.421875 -4.890625 L 12.75 -11.015625 L 15.09375 -11.015625 Z M 12.25 0 "/></g></g></g><g fill="#e5d5cd" fill-opacity="1"><g transform="translate(160.83225, 193.950002)"><g><path d="M 1.078125 0 L 1.078125 -11.015625 L 9.734375 -11.015625 L 9.734375 -9.234375 L 3.375 -9.234375 L 3.375 -6.46875 L 9.25 -6.46875 L 9.25 -4.6875 L 3.375 -4.6875 L 3.375 -1.78125 L 10.046875 -1.78125 L 10.046875 0 Z M 1.078125 0 "/></g></g></g><g fill="#e5d5cd" fill-opacity="1"><g transform="translate(171.501519, 193.950002)"><g><path d="M 1.078125 0 L 1.078125 -11.015625 L 3.375 -11.015625 L 3.375 -1.78125 L 9.28125 -1.78125 L 9.28125 0 Z M 1.078125 0 "/></g></g></g><g fill="#e5d5cd" fill-opacity="1"><g transform="translate(181.272575, 193.950002)"><g><path d="M 6.21875 -1.65625 C 7.601562 -1.65625 8.566406 -2.351562 9.109375 -3.75 L 11.125 -3 C 10.6875 -1.9375 10.050781 -1.144531 9.21875 -0.625 C 8.382812 -0.101562 7.382812 0.15625 6.21875 0.15625 C 4.445312 0.15625 3.078125 -0.34375 2.109375 -1.34375 C 1.140625 -2.351562 0.65625 -3.757812 0.65625 -5.5625 C 0.65625 -7.363281 1.117188 -8.75 2.046875 -9.71875 C 2.984375 -10.6875 4.335938 -11.171875 6.109375 -11.171875 C 7.398438 -11.171875 8.453125 -10.910156 9.265625 -10.390625 C 10.078125 -9.878906 10.648438 -9.117188 10.984375 -8.109375 L 8.953125 -7.5625 C 8.773438 -8.113281 8.4375 -8.550781 7.9375 -8.875 C 7.4375 -9.195312 6.84375 -9.359375 6.15625 -9.359375 C 5.113281 -9.359375 4.320312 -9.035156 3.78125 -8.390625 C 3.25 -7.742188 2.984375 -6.800781 2.984375 -5.5625 C 2.984375 -4.289062 3.257812 -3.320312 3.8125 -2.65625 C 4.363281 -1.988281 5.164062 -1.65625 6.21875 -1.65625 Z M 6.21875 -1.65625 "/></g></g></g><g fill="#e5d5cd" fill-opacity="1"><g transform="translate(192.824447, 193.950002)"><g><path d="M 11.78125 -5.5625 C 11.78125 -4.414062 11.550781 -3.40625 11.09375 -2.53125 C 10.644531 -1.664062 10 -1 9.15625 -0.53125 C 8.3125 -0.0703125 7.328125 0.15625 6.203125 0.15625 C 4.472656 0.15625 3.113281 -0.351562 2.125 -1.375 C 1.144531 -2.394531 0.65625 -3.789062 0.65625 -5.5625 C 0.65625 -7.320312 1.144531 -8.695312 2.125 -9.6875 C 3.101562 -10.675781 4.46875 -11.171875 6.21875 -11.171875 C 7.957031 -11.171875 9.316406 -10.671875 10.296875 -9.671875 C 11.285156 -8.671875 11.78125 -7.300781 11.78125 -5.5625 Z M 9.421875 -5.5625 C 9.421875 -6.75 9.140625 -7.675781 8.578125 -8.34375 C 8.015625 -9.019531 7.226562 -9.359375 6.21875 -9.359375 C 5.1875 -9.359375 4.390625 -9.023438 3.828125 -8.359375 C 3.265625 -7.691406 2.984375 -6.757812 2.984375 -5.5625 C 2.984375 -4.351562 3.269531 -3.398438 3.84375 -2.703125 C 4.414062 -2.003906 5.203125 -1.65625 6.203125 -1.65625 C 7.234375 -1.65625 8.023438 -1.992188 8.578125 -2.671875 C 9.140625 -3.347656 9.421875 -4.3125 9.421875 -5.5625 Z M 9.421875 -5.5625 "/></g></g></g><g fill="#e5d5cd" fill-opacity="1"><g transform="translate(205.266726, 193.950002)"><g><path d="M 10.21875 0 L 10.21875 -6.671875 C 10.21875 -6.828125 10.21875 -6.976562 10.21875 -7.125 C 10.21875 -7.28125 10.242188 -7.929688 10.296875 -9.078125 C 9.921875 -7.671875 9.644531 -6.691406 9.46875 -6.140625 L 7.484375 0 L 5.84375 0 L 3.859375 -6.140625 L 3.03125 -9.078125 C 3.09375 -7.867188 3.125 -7.066406 3.125 -6.671875 L 3.125 0 L 1.078125 0 L 1.078125 -11.015625 L 4.15625 -11.015625 L 6.125 -4.859375 L 6.296875 -4.265625 L 6.671875 -2.78125 L 7.171875 -4.546875 L 9.1875 -11.015625 L 12.265625 -11.015625 L 12.265625 0 Z M 10.21875 0 "/></g></g></g><g fill="#e5d5cd" fill-opacity="1"><g transform="translate(218.591596, 193.950002)"><g><path d="M 1.078125 0 L 1.078125 -11.015625 L 9.734375 -11.015625 L 9.734375 -9.234375 L 3.375 -9.234375 L 3.375 -6.46875 L 9.25 -6.46875 L 9.25 -4.6875 L 3.375 -4.6875 L 3.375 -1.78125 L 10.046875 -1.78125 L 10.046875 0 Z M 1.078125 0 "/></g></g></g></svg>